# This file is brought to you by Roblox Corporation
# Generated by Roblox Studio

mtllib BulletCrate.mtl

g Mesheskiste51

v 3.82168 1 -1.83024 
v 3.82168 2.75957 -1.83024 
v 3.38947 2.75957 -1.83024 
v 3.38947 1 -1.83024 
v 3.38947 1 -1.83024 
v 3.38947 2.75957 -1.83024 
v 3.38781 2.70977 -1.91341 
v 3.38781 2.70977 -1.91341 
v 3.38781 1.0498 -1.91341 
v 3.38947 1 -1.83024 
v 3.38781 1.0498 -1.91341 
v 3.38781 2.70977 -1.91341 
v 1.01771 2.70977 -1.91341 
v 1.01771 1.0498 -1.91341 
v 1.01771 1.0498 -1.91341 
v 1.01771 2.70977 -1.91341 
v 1.02291 2.75957 -1.83024 
v 1.02291 2.75957 -1.83024 
v 1.02291 1 -1.83024 
v 1.01771 1.0498 -1.91341 
v 1.02291 1 -1.83024 
v 1.02291 2.75957 -1.83024 
v 0.588673 2.75957 -1.83024 
v 0.588673 1 -1.83024 
v 3.82168 1 -3.38274 
v 3.38947 1 -3.38274 
v 3.38947 2.75957 -3.38274 
v 3.82168 2.75957 -3.38274 
v 3.38947 1 -3.38274 
v 3.38781 1.0498 -3.29957 
v 3.38781 2.70977 -3.29957 
v 3.38781 2.70977 -3.29957 
v 3.38947 2.75957 -3.38274 
v 3.38947 1 -3.38274 
v 3.38781 1.0498 -3.29957 
v 1.01771 1.0498 -3.29957 
v 1.01771 2.70977 -3.29957 
v 3.38781 2.70977 -3.29957 
v 1.01771 1.0498 -3.29957 
v 1.02291 1 -3.38274 
v 1.02291 2.75957 -3.38274 
v 1.02291 2.75957 -3.38274 
v 1.01771 2.70977 -3.29957 
v 1.01771 1.0498 -3.29957 
v 1.02291 1 -3.38274 
v 0.588673 1 -3.38274 
v 0.588673 2.75957 -3.38274 
v 1.02291 2.75957 -3.38274 
v 0.588673 1 -1.83024 
v 0.588673 2.75957 -1.83024 
v 0.588673 2.75957 -3.38274 
v 0.588673 1 -3.38274 
v 3.82168 2.75957 -1.83024 
v 3.82168 1 -1.83024 
v 3.82168 1 -3.38274 
v 3.82168 2.75957 -3.38274 
v 3.82168 1 -1.83024 
v 3.38947 1 -1.83024 
v 3.38947 1 -3.38274 
v 3.82168 1 -3.38274 
v 3.38947 1 -1.83024 
v 3.38781 1.0498 -1.91341 
v 3.38781 1.0498 -3.29957 
v 3.38781 1.0498 -3.29957 
v 3.38947 1 -3.38274 
v 3.38947 1 -1.83024 
v 3.38781 1.0498 -1.91341 
v 1.01771 1.0498 -1.91341 
v 1.01771 1.0498 -3.29957 
v 3.38781 1.0498 -3.29957 
v 1.01771 1.0498 -1.91341 
v 1.02291 1 -1.83024 
v 1.02291 1 -3.38274 
v 1.02291 1 -3.38274 
v 1.01771 1.0498 -3.29957 
v 1.01771 1.0498 -1.91341 
v 1.02291 1 -1.83024 
v 0.588673 1 -1.83024 
v 0.588673 1 -3.38274 
v 1.02291 1 -3.38274 
v 0.588673 2.75957 -1.83024 
v 1.02291 2.75957 -1.83024 
v 1.02291 2.75957 -3.38274 
v 0.588673 2.75957 -3.38274 
v 1.02291 2.75957 -1.83024 
v 1.01771 2.70977 -1.91341 
v 1.01771 2.70977 -3.29957 
v 1.01771 2.70977 -3.29957 
v 1.02291 2.75957 -3.38274 
v 1.02291 2.75957 -1.83024 
v 1.01771 2.70977 -1.91341 
v 3.38781 2.70977 -1.91341 
v 3.38781 2.70977 -3.29957 
v 1.01771 2.70977 -3.29957 
v 3.38781 2.70977 -1.91341 
v 3.38947 2.75957 -1.83024 
v 3.38947 2.75957 -3.38274 
v 3.38947 2.75957 -3.38274 
v 3.38781 2.70977 -3.29957 
v 3.38781 2.70977 -1.91341 
v 3.38947 2.75957 -1.83024 
v 3.82168 2.75957 -1.83024 
v 3.82168 2.75957 -3.38274 
v 3.38947 2.75957 -3.38274 

vn 0 0 1 
vn 0 0 1 
vn 0 0 1 
vn 0 0 1 
vn -1 0 0.023622 
vn -1 0 0.023622 
vn -1 0 0.023622 
vn -1 0 0.023622 
vn -1 0 0.023622 
vn -1 0 0.023622 
vn 0 0 1 
vn 0 0 1 
vn 0 0 1 
vn 0 0 1 
vn 1 0 -0.0629921 
vn 1 0 -0.0629921 
vn 1 0 -0.0629921 
vn 1 0 -0.0629921 
vn 1 0 -0.0629921 
vn 1 0 -0.0629921 
vn 0 0 1 
vn 0 0 1 
vn 0 0 1 
vn 0 0 1 
vn 0 0 -1 
vn 0 0 -1 
vn 0 0 -1 
vn 0 0 -1 
vn -1 0 -0.023622 
vn -1 0 -0.023622 
vn -1 0 -0.023622 
vn -1 0 -0.023622 
vn -1 0 -0.023622 
vn -1 0 -0.023622 
vn 0 0 -1 
vn 0 0 -1 
vn 0 0 -1 
vn 0 0 -1 
vn 1 0 0.0629921 
vn 1 0 0.0629921 
vn 1 0 0.0629921 
vn 1 0 0.0629921 
vn 1 0 0.0629921 
vn 1 0 0.0629921 
vn 0 0 -1 
vn 0 0 -1 
vn 0 0 -1 
vn 0 0 -1 
vn -1 0 0 
vn -1 0 0 
vn -1 0 0 
vn -1 0 0 
vn 1 0 0 
vn 1 0 0 
vn 1 0 0 
vn 1 0 0 
vn 0 -1 0 
vn 0 -1 0 
vn 0 -1 0 
vn 0 -1 0 
vn -1 -0.0314961 0 
vn -1 -0.0314961 0 
vn -1 -0.0314961 0 
vn -1 -0.0314961 0 
vn -1 -0.0314961 0 
vn -1 -0.0314961 0 
vn 0 -1 0 
vn 0 -1 0 
vn 0 -1 0 
vn 0 -1 0 
vn 0.992126 0.102362 0 
vn 0.992126 0.102362 0 
vn 0.992126 0.102362 0 
vn 0.992126 0.102362 0 
vn 0.992126 0.102362 0 
vn 0.992126 0.102362 0 
vn 0 -1 0 
vn 0 -1 0 
vn 0 -1 0 
vn 0 -1 0 
vn 0 1 0 
vn 0 1 0 
vn 0 1 0 
vn 0 1 0 
vn 0.992126 -0.102362 0 
vn 0.992126 -0.102362 0 
vn 0.992126 -0.102362 0 
vn 0.992126 -0.102362 0 
vn 0.992126 -0.102362 0 
vn 0.992126 -0.102362 0 
vn 0 1 0 
vn 0 1 0 
vn 0 1 0 
vn 0 1 0 
vn -1 0.0314961 0 
vn -1 0.0314961 0 
vn -1 0.0314961 0 
vn -1 0.0314961 0 
vn -1 0.0314961 0 
vn -1 0.0314961 0 
vn 0 1 0 
vn 0 1 0 
vn 0 1 0 
vn 0 1 0 

vt 0.989643 0.0100557 
vt 0.989643 0.591254 
vt 0.845476 0.591253 
vt 0.845476 0.0100557 
vt 0.120535 0.745913 
vt 0.469359 0.745913 
vt 0.459487 0.755786 
vt 0.459487 0.755786 
vt 0.130407 0.755786 
vt 0.120535 0.745913 
vt 0.795134 0.29177 
vt 0.795134 0.707638 
vt 0.0303803 0.707638 
vt 0.0303804 0.29177 
vt 0.459487 0.755786 
vt 0.130407 0.755786 
vt 0.120535 0.745913 
vt 0.120535 0.745913 
vt 0.469359 0.745913 
vt 0.459487 0.755786 
vt 0.844953 0.591254 
vt 0.844953 0.0100558 
vt 0.989749 0.0100558 
vt 0.989749 0.591254 
vt 0.989749 0.591253 
vt 0.845582 0.591253 
vt 0.845582 0.0100555 
vt 0.989749 0.0100555 
vt 0.120535 0.761048 
vt 0.130407 0.751176 
vt 0.459487 0.751176 
vt 0.459487 0.751176 
vt 0.469359 0.761048 
vt 0.120535 0.761048 
vt 0.0305199 0.29177 
vt 0.795415 0.29177 
vt 0.795415 0.707638 
vt 0.0305199 0.707638 
vt 0.459487 0.751176 
vt 0.469359 0.761048 
vt 0.120535 0.761048 
vt 0.120535 0.761048 
vt 0.130407 0.751176 
vt 0.459487 0.751176 
vt 0.844847 0.0100556 
vt 0.989643 0.0100556 
vt 0.989643 0.591253 
vt 0.844847 0.591253 
vt 0.0298867 0.710137 
vt 0.543671 0.710137 
vt 0.543671 0.990889 
vt 0.0298868 0.990889 
vt 0.0298868 0.710137 
vt 0.543671 0.710137 
vt 0.543671 0.990889 
vt 0.0298867 0.990889 
vt 0.989887 0.990746 
vt 0.845287 0.990746 
vt 0.845287 0.594992 
vt 0.989887 0.594992 
vt 0.104647 0.762169 
vt 0.122674 0.744142 
vt 0.423122 0.744142 
vt 0.423122 0.744142 
vt 0.441149 0.762169 
vt 0.104647 0.762169 
vt 0.0290076 0.00675339 
vt 0.796432 0.00675339 
vt 0.796432 0.293849 
vt 0.0290076 0.293849 
vt 0.122674 0.756188 
vt 0.104647 0.738161 
vt 0.441149 0.738161 
vt 0.441149 0.738161 
vt 0.423122 0.756188 
vt 0.122674 0.756188 
vt 0.845277 0.595345 
vt 0.990036 0.595345 
vt 0.990036 0.990774 
vt 0.845277 0.990774 
vt 0.989887 0.990746 
vt 0.845187 0.990746 
vt 0.845187 0.594992 
vt 0.989887 0.594992 
vt 0.104647 0.762169 
vt 0.122674 0.744142 
vt 0.423122 0.744142 
vt 0.423122 0.744142 
vt 0.441149 0.762169 
vt 0.104647 0.762169 
vt 0.0288608 0.00675339 
vt 0.796211 0.00675339 
vt 0.796211 0.293849 
vt 0.0288608 0.293849 
vt 0.122674 0.756188 
vt 0.104647 0.738161 
vt 0.441149 0.738161 
vt 0.441149 0.738161 
vt 0.423122 0.756188 
vt 0.122674 0.756188 
vt 0.845377 0.595345 
vt 0.990036 0.595345 
vt 0.990036 0.990774 
vt 0.845377 0.990774 

usemtl Mesheskiste51Mtl

f 1/1/1 2/2/2 3/3/3 
f 3/3/3 4/4/4 1/1/1 
f 5/5/5 6/6/6 7/7/7 
f 8/8/8 9/9/9 10/10/10 
f 11/11/11 12/12/12 13/13/13 
f 13/13/13 14/14/14 11/11/11 
f 15/15/15 16/16/16 17/17/17 
f 18/18/18 19/19/19 20/20/20 
f 21/21/21 22/22/22 23/23/23 
f 23/23/23 24/24/24 21/21/21 
f 25/25/25 26/26/26 27/27/27 
f 27/27/27 28/28/28 25/25/25 
f 29/29/29 30/30/30 31/31/31 
f 32/32/32 33/33/33 34/34/34 
f 35/35/35 36/36/36 37/37/37 
f 37/37/37 38/38/38 35/35/35 
f 39/39/39 40/40/40 41/41/41 
f 42/42/42 43/43/43 44/44/44 
f 45/45/45 46/46/46 47/47/47 
f 47/47/47 48/48/48 45/45/45 
f 49/49/49 50/50/50 51/51/51 
f 51/51/51 52/52/52 49/49/49 
f 53/53/53 54/54/54 55/55/55 
f 55/55/55 56/56/56 53/53/53 
f 57/57/57 58/58/58 59/59/59 
f 59/59/59 60/60/60 57/57/57 
f 61/61/61 62/62/62 63/63/63 
f 64/64/64 65/65/65 66/66/66 
f 67/67/67 68/68/68 69/69/69 
f 69/69/69 70/70/70 67/67/67 
f 71/71/71 72/72/72 73/73/73 
f 74/74/74 75/75/75 76/76/76 
f 77/77/77 78/78/78 79/79/79 
f 79/79/79 80/80/80 77/77/77 
f 81/81/81 82/82/82 83/83/83 
f 83/83/83 84/84/84 81/81/81 
f 85/85/85 86/86/86 87/87/87 
f 88/88/88 89/89/89 90/90/90 
f 91/91/91 92/92/92 93/93/93 
f 93/93/93 94/94/94 91/91/91 
f 95/95/95 96/96/96 97/97/97 
f 98/98/98 99/99/99 100/100/100 
f 101/101/101 102/102/102 103/103/103 
f 103/103/103 104/104/104 101/101/101 

